<?xml version="1.0" standalone="no"?><!DOCTYPE svg PUBLIC "-//W3C//DTD SVG 1.1//EN" "http://www.w3.org/Graphics/SVG/1.1/DTD/svg11.dtd"><svg t="1532345388824" class="icon" style="" viewBox="0 0 1131 1024" version="1.1" xmlns="http://www.w3.org/2000/svg" p-id="735" xmlns:xlink="http://www.w3.org/1999/xlink" width="220.8984375" height="200"><defs><style type="text/css"></style></defs><path d="M167.183673 867.265306h483.265307c-20.897959-20.897959-39.183673-47.020408-52.244898-73.142857H167.183673c-52.244898 0-94.040816-41.795918-94.040816-94.040816V167.183673c0-52.244898 41.795918-94.040816 94.040816-94.040816H835.918367c52.244898 0 94.040816 41.795918 94.040817 94.040816v289.959184c28.734694 13.061224 52.244898 28.734694 73.142857 49.632653v-339.591837C1003.102041 75.755102 929.959184 0 835.918367 0H167.183673C75.755102 0 0 75.755102 0 167.183673v532.89796c0 91.428571 75.755102 167.183673 167.183673 167.183673zM867.265306 935.183673c-13.061224 2.612245-28.734694 5.22449-41.795918 5.22449-15.673469 0-31.346939-2.612245-44.408164-5.22449H36.571429c-20.897959 0-36.571429 15.673469-36.571429 36.571429s15.673469 36.571429 36.571429 36.571429H966.530612l-73.142857-73.142858h-26.122449z" fill="" p-id="736"></path><path d="M1118.040816 961.306122l-112.32653-112.32653c39.183673-41.795918 62.693878-96.653061 62.693877-159.346939 0-130.612245-104.489796-235.102041-235.102041-235.102041s-235.102041 104.489796-235.10204 235.102041 104.489796 235.102041 235.10204 235.102041c41.795918 0 80.979592-10.44898 114.938776-28.734694l117.55102 117.55102c7.836735 7.836735 15.673469 10.44898 26.122449 10.44898s18.285714-2.612245 26.122449-10.44898c15.673469-13.061224 15.673469-36.571429 0-52.244898zM671.346939 689.632653c0-88.816327 73.142857-161.959184 161.959183-161.959184s161.959184 73.142857 161.959184 161.959184-73.142857 161.959184-161.959184 161.959184-161.959184-73.142857-161.959183-161.959184zM287.346939 376.163265c62.693878 0 112.326531-49.632653 112.32653-112.32653S350.040816 151.510204 287.346939 151.510204s-112.326531 49.632653-112.326531 112.326531 49.632653 112.326531 112.326531 112.32653z m0-172.408163c33.959184 0 62.693878 28.734694 62.693877 62.693878s-28.734694 62.693878-62.693877 62.693877-62.693878-28.734694-62.693878-62.693877S253.387755 203.755102 287.346939 203.755102zM201.142857 480.653061h172.408163c13.061224 0 23.510204-10.44898 23.510204-23.510204s-10.44898-23.510204-23.510204-23.510204H201.142857c-13.061224 0-23.510204 10.44898-23.510204 23.510204s7.836735 23.510204 23.510204 23.510204z" fill="" p-id="737"></path><path d="M815.020408 334.367347v-2.612245-5.22449-2.612245s0-2.612245-2.612245-2.612245v-2.612244l-2.612245-2.612245-78.367347-70.530613c-10.44898-7.836735-26.122449-7.836735-33.959183 2.612245-7.836735 10.44898-7.836735 26.122449 2.612245 33.959184l28.734694 26.122449h-96.653062-2.612245s-2.612245 0-2.612244 2.612245c-2.612245 0-2.612245 2.612245-5.22449 2.612245l-253.387755 269.061224H201.142857c-13.061224 0-23.510204 10.44898-23.510204 23.510204s10.44898 23.510204 23.510204 23.510204h172.408163c7.836735 0 13.061224-2.612245 18.285715-7.836734l253.387755-269.061225h73.142857l-20.897959 18.285715c-10.44898 7.836735-13.061224 23.510204-5.22449 33.959183 5.22449 5.22449 13.061224 10.44898 18.285714 10.44898 5.22449 0 10.44898-2.612245 15.67347-5.22449l78.367347-60.081633 2.612244-2.612245s0-2.612245 2.612245-2.612244l2.612245-2.612245V339.591837v-2.612245c2.612245 2.612245 2.612245 0 2.612245-2.612245 0 2.612245 0 0 0 0z" fill="" p-id="738"></path></svg>