<?xml version="1.0" standalone="no"?><!DOCTYPE svg PUBLIC "-//W3C//DTD SVG 1.1//EN" "http://www.w3.org/Graphics/SVG/1.1/DTD/svg11.dtd"><svg t="1532417871314" class="icon" style="" viewBox="0 0 1024 1024" version="1.1" xmlns="http://www.w3.org/2000/svg" p-id="921" xmlns:xlink="http://www.w3.org/1999/xlink" width="200" height="200"><defs><style type="text/css"></style></defs><path d="M808.672897 1024H208.94704c-86.130841 0-156.311526-66.990654-156.311526-153.121495V156.311526C52.635514 73.370717 122.816199 3.190031 208.94704 3.190031h389.183801c9.570093 0 15.950156 6.380062 15.950156 15.950156s-6.380062 15.950156-15.950156 15.950156H208.94704c-70.180685 0-124.411215 54.23053-124.411214 121.221183v714.566979c0 66.990654 57.420561 121.221184 124.411214 121.221183h599.725857c70.180685 0 124.411215-54.23053 124.411215-121.221183v-510.404985c0-9.570093 6.380062-15.950156 15.950156-15.950156s15.950156 6.380062 15.950156 15.950156v510.404985c3.190031 82.94081-70.180685 153.121495-156.311527 153.121495z" fill="" p-id="922"></path><path d="M594.94081 472.124611c-3.190031 0-9.570093-3.190031-12.760125-3.190032l-216.922118-210.542056c-6.380062-6.380062-6.380062-15.950156 0-22.330218 6.380062-6.380062 15.950156-6.380062 22.330218 0l204.161994 197.781932 350.903427-373.233645c6.380062-6.380062 15.950156-6.380062 22.330218 0 6.380062 6.380062 6.380062 15.950156 0 22.330218l-360.473521 382.803738c-3.190031 3.190031-6.380062 6.380062-9.570093 6.380063zM665.121495 602.915888H266.367601c-9.570093 0-15.950156-6.380062-15.950156-15.950156s6.380062-15.950156 15.950156-15.950156h398.753894c9.570093 0 15.950156 6.380062 15.950156 15.950156s-6.380062 15.950156-15.950156 15.950156zM665.121495 797.507788H266.367601c-9.570093 0-15.950156-6.380062-15.950156-15.950156s9.570093-15.950156 15.950156-15.950155h398.753894c9.570093 0 15.950156 6.380062 15.950156 15.950155s-6.380062 15.950156-15.950156 15.950156zM811.862928 602.915888h-35.090342c-9.570093 0-15.950156-6.380062-15.950156-15.950156s6.380062-15.950156 15.950156-15.950156h35.090342c9.570093 0 15.950156 6.380062 15.950156 15.950156s-9.570093 15.950156-15.950156 15.950156zM811.862928 797.507788h-35.090342c-9.570093 0-15.950156-6.380062-15.950156-15.950156s6.380062-15.950156 15.950156-15.950155h35.090342c9.570093 0 15.950156 6.380062 15.950156 15.950155s-9.570093 15.950156-15.950156 15.950156z" fill="" p-id="923"></path></svg>