<?xml version="1.0" standalone="no"?><!DOCTYPE svg PUBLIC "-//W3C//DTD SVG 1.1//EN" "http://www.w3.org/Graphics/SVG/1.1/DTD/svg11.dtd"><svg t="1532417502483" class="icon" style="" viewBox="0 0 1024 1024" version="1.1" xmlns="http://www.w3.org/2000/svg" p-id="1015" xmlns:xlink="http://www.w3.org/1999/xlink" width="200" height="200"><defs><style type="text/css"></style></defs><path d="M512.319977 436.96073C558.908643 415.970232 591.482312 369.317571 591.482312 315.049454c0-73.850715-60.0917-133.942415-133.942415-133.942415S323.597483 241.134744 323.597483 315.049454c0 54.268116 32.573669 100.920778 79.09834 121.911276 17.662736-4.543675 35.837435-7.67945 54.844075-7.67945C476.610533 429.28128 494.721237 432.417055 512.319977 436.96073zM367.690327 315.049454c0-49.596451 40.317115-89.785575 89.913566-89.785575 49.532455 0 89.84957 40.253119 89.84957 89.785575S507.136348 404.96302 457.603893 404.96302C408.007442 404.96302 367.690327 364.517914 367.690327 315.049454z" p-id="1016"></path><path d="M498.432971 628.755005 281.424501 628.755005c10.943217-87.48174 85.753863-155.380881 176.179392-155.380881 46.39668 0 88.441671 18.046709 120.055409 47.292616C587.258614 513.883225 596.793932 506.907724 606.713222 501.6601l9.279336-4.799657c-27.965999-28.797939-63.611448-49.596451-103.672581-59.963709C495.617172 444.51219 477.122496 448.991869 457.603893 448.991869s-38.077275-4.479679-54.844075-12.031139C307.214655 461.470976 236.051748 547.672807 236.051748 650.769429c0 12.223125 9.91929 22.07842 22.014425 22.07842l211.632855 3.967716C469.699027 676.815565 495.809159 634.386602 498.432971 628.755005z" p-id="1017"></path><path d="M512.70395 437.280707C497.921008 421.473838 480.066285 421.473838 461.059645 421.473838s-44.284831 0-57.979851 15.806869C419.91059 445.600112 438.405267 450.527759 457.92387 450.527759 477.506468 450.527759 495.937149 445.600112 512.70395 437.280707z" p-id="1018"></path><path d="M769.709558 713.292955c-31.229765-15.166915-68.923068-2.175844-84.153978 29.117916-15.166915 31.229765-2.175844 68.923068 29.117916 84.153978 5.695592 2.815798 11.647166 3.647739 17.662736 4.60767 26.68609 4.223698 54.07613-8.127418 66.555237-33.661591 11.647166-24.254264 6.207556-51.964281-11.263194-70.522953C782.572637 721.61236 776.749054 716.748708 769.709558 713.292955z" p-id="1019"></path><path d="M941.921234 794.311157c20.670521-5.183629 37.693303-10.175272 51.132341-14.910933 0.319977-13.823011-0.127991-27.902003-2.175844-41.980996-0.063995-1.215913-0.255982-2.431826-0.383973-3.647739-13.951002-3.327762-31.229765-6.399542-52.348254-9.279336-2.751803-12.031139-6.591528-23.550315-11.263194-34.621522 15.23091-14.782942 27.454035-27.518031 36.669376-38.397252-7.295478-13.567029-15.678878-26.366113-25.022209-38.205266-13.69502 4.095707-30.397825 10.111276-50.044419 18.174699-8.191414-8.959359-17.342759-17.022782-27.070063-24.31826 5.823583-20.414539 9.983286-37.629307 12.607098-51.7083-12.927075-7.999428-26.622095-14.974928-40.701087-20.670521-1.471895 1.663881-3.327762 3.77573-4.927647 5.503606-8.703377 9.663308-18.30269 20.990498-29.373898 35.197481-3.711734-1.087922-7.67945-1.471895-11.45518-2.367831-7.999428-1.983858-15.870864-4.095707-24.062278-5.119634-5.247624-20.54253-10.175272-37.565312-14.974928-50.940355-13.823011-0.447968-27.838008 0.127991-41.853005 2.047853-1.471895 0.127991-2.623812 0.319977-3.839725 0.511963-3.135776 13.823011-6.463537 31.229765-9.215341 52.348254-11.135203 2.495821-21.822438 6.207556-32.061706 10.495249-0.895936 0.319977-1.727876 0.383973-2.495821 0.767945-14.782942-15.294905-27.518031-27.518031-38.397252-36.669376C612.536805 550.744587 605.433314 556.312189 597.881854 561.367827 592.826216 564.887575 587.258614 567.639378 582.458958 571.479104c4.095707 13.69502 10.111276 30.269834 18.174699 49.980423-8.447395 7.999428-16.254837 16.702805-23.230338 25.918145L572.027704 647.377672c-18.366686-5.119634-34.365541-9.023354-47.292616-11.391185-2.23984 3.583744-3.711734 7.67945-5.759588 11.391185-5.375615 9.599313-10.815226 19.198626-14.910933 29.373898 5.247624 4.927647 11.199199 10.175272 17.982713 15.870864s14.334974 11.775157 22.718374 18.238695c-3.327762 11.583171-6.01557 23.486319-7.359473 35.709445-20.606525 5.119634-37.629307 10.175272-51.068345 14.910933-0.511963 13.759015 0.191986 27.774012 1.983858 41.917 0.191986 1.215913 0.383973 2.495821 0.575959 3.711734 13.823011 3.327762 31.229765 6.335547 52.348254 9.279336 1.407899 6.01557 3.839725 11.583171 5.695592 17.406754 1.855867 5.695592 3.199771 11.647166 5.503606 17.150773-8.831368 8.639382-16.446823 16.446823-23.358328 23.742301-4.927647 5.183629-9.535318 10.175272-13.375043 14.654951 7.231482 13.631025 15.550887 26.366113 25.022209 38.397252 13.567029-4.095707 30.397825-10.239267 50.044419-18.30269 8.191414 8.959359 17.406754 17.022782 27.070063 24.31826-5.887579 20.350544-10.111276 37.629307-12.607098 51.644304 12.799084 8.063423 26.494104 14.974928 40.701087 20.606525 9.855295-10.239267 21.118489-23.806296 34.173554-40.637092 11.583171 3.583744 23.422324 6.01557 35.645449 7.487464 5.183629 20.606525 10.175272 37.565312 14.910933 51.00435 13.759015 0.447968 27.774012-0.191986 41.980996-2.047853 1.215913-0.127991 2.431826-0.255982 3.711734-0.447968 3.263766-13.887006 6.335547-31.293761 9.151345-52.412249 12.031139-2.751803 23.550315-6.527533 34.557527-11.263194 14.782942 15.294905 27.646022 27.518031 38.461248 36.733371 13.631025-7.231482 26.366113-15.614883 38.205266-25.022209-3.967716-13.631025-9.983286-30.333829-18.174699-50.044419 8.895363-8.255409 16.958786-17.406754 24.254264-27.006067 20.414539 5.823583 37.693303 9.983286 51.7083 12.607098 8.063423-12.863079 15.038924-26.494104 20.670521-40.829078-10.431254-9.727304-23.934287-21.118489-40.765083-34.173554C938.081509 818.373435 940.57733 806.534282 941.921234 794.311157zM758.702345 915.582479c-46.332684 6.079565-90.041556-10.62324-121.079335-40.957069-12.031139-11.775157-21.886434-25.406182-29.309903-40.829078-6.655524-13.69502-11.775157-28.349971-13.887006-44.348826-4.671666-35.197481 4.287693-68.859072 21.886434-96.825071 14.462965-22.91036 35.06949-41.469032 60.027704-53.564167 13.759015-6.591528 28.349971-11.775157 44.284831-13.823011 23.486319-3.135776 46.140698 0.127991 67.067201 7.423469 14.654951 5.183629 28.541957 12.031139 40.765083 21.310475 29.949857 22.846365 51.196336 57.14791 56.507956 97.40103C895.460559 831.556492 838.824612 905.08723 758.702345 915.582479z" p-id="1020"></path><path d="M376.393704 767.945044 153.625646 767.945044C104.157186 767.945044 64.032058 727.819915 64.032058 678.351455L64.032058 153.589009C64.032058 104.120549 104.157186 63.99542 153.625646 63.99542l524.762447 0C727.856553 63.99542 767.981681 104.120549 767.981681 153.589009l0 236.207096c0 2.367831 46.588666 6.079565 63.99542 11.135203L831.977102 127.990841c0-70.714939-57.275901-127.990841-127.990841-127.990841L128.027478 0C57.312539 0 0.036637 57.275901 0.036637 127.990841l0 575.958783c0 70.714939 57.275901 127.990841 127.990841 127.990841l258.09353 0C381.641329 814.469715 378.185576 767.945044 376.393704 767.945044z" p-id="1021"></path><path d="M329.549057 395.235716c0 0-221.616141-11.967144-221.48815 243.374584l44.028849 0c0 0-14.014997-182.64293 177.523296-199.281739L329.549057 395.235716z" p-id="1022"></path><path d="M329.613052 191.602288c0 0-117.495592 0-117.495592 117.431596 0 0 0 109.496164 117.495592 117.431596L329.613052 386.468343c0 0-68.411104-5.823583-74.426674-77.434459 0 0-3.135776-74.554665 74.426674-80.570234L329.613052 191.602288z" p-id="1023"></path></svg>