<?xml version="1.0" standalone="no"?><!DOCTYPE svg PUBLIC "-//W3C//DTD SVG 1.1//EN" "http://www.w3.org/Graphics/SVG/1.1/DTD/svg11.dtd"><svg t="1532345403990" class="icon" style="" viewBox="0 0 1024 1024" version="1.1" xmlns="http://www.w3.org/2000/svg" p-id="851" xmlns:xlink="http://www.w3.org/1999/xlink" width="200" height="200"><defs><style type="text/css"></style></defs><path d="M574.56 634.4c-33.344-57.088-66.592-114.272-100.128-171.264-19.168-32.416-55.904-32.256-75.328 0.16a166102.144 166102.144 0 0 0-165.344 276.896c-7.584 12.672-13.6 26.144-5.6 40.832 8.256 15.104 23.136 15.52 37.856 15.52l244.96-0.16a237.952 237.952 0 0 1 63.584-161.984z m-140.768 111.808a25.92 25.92 0 0 1-25.952-26.144c-0.064-14.688 11.168-25.76 26.048-25.824 14.848 0 26.016 11.136 25.888 25.92a25.92 25.92 0 0 1-25.984 26.048z m26.784-103.264c-0.224 15.808-11.456 27.232-26.272 27.232-14.56-0.128-26.048-11.776-26.112-27.52a9313.984 9313.984 0 0 1 0-103.584c0.064-15.264 11.264-26.624 25.536-26.752 14.496 0 26.56 11.808 26.816 27.072 0.32 17.536 0.064 35.168 0.064 52.768 0.032 16.928 0.192 33.856-0.032 50.784z" fill="" p-id="852"></path><path d="M520.288 862.496H125.632V43.008h669.312v518.56c15.52 2.944 30.496 7.36 44.8 13.152V2.688H80.8v900.096h455.168a234.176 234.176 0 0 1-15.68-40.288z" fill="" p-id="853"></path><path d="M643.648 489.92a42.24 42.24 0 0 0 40.704 42.176v-5.728a36.64 36.64 0 0 1-35.104-36.448c0-19.712 15.552-35.456 35.104-36.416v-5.696a42.24 42.24 0 0 0-40.704 42.112z m44.544-42.08v5.696a36.48 36.48 0 0 1 34.688 36.384c0 19.584-15.328 35.296-34.688 36.416v5.728a42.304 42.304 0 0 0 40.416-42.144c0-22.72-18.048-40.96-40.416-42.08z" fill="" p-id="854"></path><path d="M643.648 489.92h84.928v2.336h-84.928z" fill="" p-id="855"></path><path d="M716.096 469.568l-11.2 42.368h-10.112l-7.232-27.648a20.064 20.064 0 0 1-0.672-4.672h-0.064a29.6 29.6 0 0 1-0.8 4.672l-7.328 27.648h-10.432l-11.232-42.368h9.856l6.272 28.672c0.224 1.216 0.48 2.848 0.64 4.768h0.064a31.36 31.36 0 0 1 0.896-4.896l7.84-28.544h9.664l7.232 28.928a31.68 31.68 0 0 1 0.608 4.48h0.128c0.16-1.536 0.352-3.136 0.672-4.576l6.144-28.8h9.056z" fill="" p-id="856"></path><path d="M384.768 111.968H188.672a12.736 12.736 0 0 0-13.12 13.024v143.968c0 7.168 5.536 13.088 13.12 13.088h196.096c6.912 0 13.088-5.76 13.088-13.088V124.992a13.024 13.024 0 0 0-13.088-13.024z m4.224 131.712c0 1.12 0 1.376-0.64 1.792l-40.416-40.256s-12.416-12.32-24.48 7.008c-11.424 20-20.8 20.256-32.096 6.816L242.656 178.112s-11.392-14.976-24.512 0l-32.832 31.84V132.416c0-5.568 5.504-10.208 11.776-10.208h179.584c6.944 0 12.48 4.768 12.48 10.208l-0.16 111.264z" fill="" p-id="857"></path><path d="M328.704 154.112a14.08 14.08 0 0 0 7.072 12.224 14.24 14.24 0 0 0 14.112 0 14.272 14.272 0 0 0 7.04-12.224 14.08 14.08 0 0 0-28.224 0" fill="" p-id="858"></path><path d="M433.984 111.968h316.32v28.064h-316.32zM433.984 159.264h316.32v28.128h-316.32zM433.984 206.592h316.32v28.064h-316.32zM433.984 253.888h316.32v28.128h-316.32zM175.552 303.328h574.752v28.064H175.552zM175.552 354.72h574.752v28.096H175.552z" fill="" p-id="859"></path><path d="M750.304 991.52a187.104 187.104 0 0 0 0-374.112 186.944 186.944 0 0 0-187.072 187.008 187.104 187.104 0 0 0 187.072 187.104z m0 23.744a210.784 210.784 0 0 1 0-421.536 210.656 210.656 0 0 1 210.624 210.72 210.72 210.72 0 0 1-210.624 210.816z" fill="" p-id="860"></path><path d="M816.896 723.616h0.96a10.208 10.208 0 0 0 10.176-10.208v-8.096h7.104a10.176 10.176 0 0 0 10.176-10.208v-8.32H652.48v8.32c0 5.664 4.608 10.208 10.112 10.208h6.88v8.096c0 5.664 4.576 10.208 10.24 10.208h1.024c0 24.672 7.616 48 27.136 63.968 1.824 1.568 5.824 5.248 7.968 7.296 1.568 1.76 2.784 3.52 2.848 4.768 0.192 3.04-3.456 6.816-6.496 9.376-0.064 0-0.064 0.128-0.128 0.128-22.56 16.032-31.328 40.672-31.328 67.104h-1.024a10.24 10.24 0 0 0-10.24 10.176v8.192h-6.88a10.176 10.176 0 0 0-10.112 10.176v8.416h192.864v-8.416a10.144 10.144 0 0 0-10.176-10.176h-7.104v-8.192a10.24 10.24 0 0 0-10.176-10.176h-0.96c-0.064-26.24-9.024-50.88-31.424-66.912 0-0.128-0.064-0.192-0.16-0.32-3.008-2.56-6.784-6.336-6.56-9.376 0.128-1.248 1.376-3.04 2.944-4.768 2.656-2.592 8.64-7.968 8.64-7.968l-0.064-0.064c18.88-15.936 26.592-38.912 26.592-63.232z m-32.256 47.68s-1.984 2.272-6.208 5.76a64.832 64.832 0 0 1-6.336 5.664c-3.584 3.488-7.488 8.032-8.256 11.904h-0.256a23.968 23.968 0 0 0 8.672 22.752c4.384 3.808 5.696 4.896 5.408 4.896 0.288 0.224 0.48 0.512 0.736 0.736 4.256 3.488 6.144 5.728 6.144 5.728 15.104 12.64 16.672 40.608 16.896 47.52h-19.168c0.48-17.696-10.112-29.728-12.032-32.256-1.952-2.496-5.376-6.016-12.992-14.912-7.744-8.896-4.608-23.232-2.912-30.816 1.76-7.552 12.128-18.176 15.904-22.624 3.648-4.512 3.328-7.68 3.328-7.68H724.48s-0.352 3.2 3.424 7.68c3.68 4.448 14.144 15.072 15.84 22.624 1.664 7.584 4.768 21.92-2.912 30.816-7.744 8.864-11.04 12.416-12.928 14.912-2.016 2.528-12.672 14.56-12.096 32.256h-19.424c0.192-6.944 1.76-34.912 16.8-47.52 0 0 2.016-2.208 6.208-5.728 0.32-0.256 0.512-0.544 0.768-0.736-0.288 0 0.928-1.088 5.408-4.896a23.776 23.776 0 0 0 8.608-22.752h-0.16c-0.8-3.872-4.704-8.416-8.192-11.904a61.76 61.76 0 0 1-6.432-5.664 54.112 54.112 0 0 1-6.208-5.76c-14.976-12.64-16.64-40.352-16.8-47.456h105.056c-0.192 7.104-1.856 34.816-16.8 47.456z" fill="" p-id="861"></path></svg>