<?xml version="1.0" standalone="no"?><!DOCTYPE svg PUBLIC "-//W3C//DTD SVG 1.1//EN" "http://www.w3.org/Graphics/SVG/1.1/DTD/svg11.dtd"><svg t="1532573998915" class="icon" style="" viewBox="0 0 1024 1024" version="1.1" xmlns="http://www.w3.org/2000/svg" p-id="1033" xmlns:xlink="http://www.w3.org/1999/xlink" width="200" height="200"><defs><style type="text/css"></style></defs><path d="M976.104727 378.368c-3.584-12.008727-13.591273-20.48-25.320727-21.504l-269.218909-16.709818-142.894545-251.578182c-4.561455-11.450182-15.080727-18.850909-26.717091-18.850909-11.636364 0-22.155636 7.400727-26.763636 18.850909L340.712727 340.154182 73.029818 355.793455C61.300364 356.864 51.293091 365.335273 47.755636 377.297455 44.125091 389.306182 47.662545 402.432 56.645818 410.530909l210.571636 224.488727-72.471273 304.314182c-2.746182 12.148364 1.675636 24.855273 11.077818 32.302545 9.448727 7.354182 22.016 8.052364 32.116364 1.675636l274.059636-166.818909 274.757818 166.818909c4.608 2.932364 9.728 4.375273 14.848 4.375273 6.097455 0 12.148364-2.048 17.221818-6.050909 9.402182-7.447273 13.777455-20.154182 11.031273-32.302545l-75.264-305.664 212.619636-222.114909C976.197818 403.456 979.688727 390.330182 976.104727 378.368zM898.932364 434.082909l-203.962182 182.690909 87.272727 258.653091c2.327273 10.286545-1.396364 21.038545-9.402182 27.322182-4.375273 3.397818-9.495273 5.12-14.661818 5.12-4.375273 0-8.750545-1.256727-12.613818-3.723636l-233.565091-164.398545-232.96 164.398545c-8.564364 5.445818-19.269818 4.840727-27.275636-1.396364-8.005818-6.283636-11.729455-17.035636-9.402182-27.322182l84.898909-257.489455L124.928 433.152C117.294545 426.309818 114.315636 415.185455 117.387636 405.038545 120.413091 394.938182 128.930909 387.770182 138.891636 386.885818l227.514182 4.747636 122.833455-236.171636c3.863273-9.681455 12.8-15.965091 22.714182-15.965091 9.914182 0 18.850909 6.283636 22.714182 15.965091l121.437091 236.171636 228.864-3.863273c9.960727 0.884364 18.478545 8.052364 21.504 18.199273C909.544727 416.069818 906.565818 427.194182 898.932364 434.082909z" p-id="1034"></path></svg>