<?xml version="1.0" standalone="no"?><!DOCTYPE svg PUBLIC "-//W3C//DTD SVG 1.1//EN" "http://www.w3.org/Graphics/SVG/1.1/DTD/svg11.dtd"><svg t="1532574165462" class="icon" style="" viewBox="0 0 1024 1024" version="1.1" xmlns="http://www.w3.org/2000/svg" p-id="1059" xmlns:xlink="http://www.w3.org/1999/xlink" width="200" height="200"><defs><style type="text/css"></style></defs><path d="M715.167724 829.001841 209.044572 829.001841c-16.346293 0-29.573549-13.227256-29.573549-29.573549 0-16.346293 13.227256-29.572526 29.573549-29.572526l506.123153 0c16.346293 0 29.572526 13.227256 29.572526 29.572526C744.74025 815.775608 731.514017 829.001841 715.167724 829.001841z" p-id="1060"></path><path d="M770.125407 982.065935 154.027537 982.065935c-48.923246 0-88.719624-39.797401-88.719624-88.719624L65.307913 130.652665c0-48.923246 39.797401-88.719624 88.719624-88.719624l417.143609 0c16.346293 0 29.572526 13.227256 29.572526 29.572526 0 16.346293-13.227256 29.573549-29.572526 29.573549L154.027537 101.079116c-16.317641 0-29.573549 13.255908-29.573549 29.573549l0 762.693646c0 16.317641 13.255908 29.572526 29.573549 29.572526l616.09787 0c16.317641 0 29.572526-13.254885 29.572526-29.572526L799.697933 657.916301c0-16.346293 13.229303-29.572526 29.573549-29.572526 16.347317 0 29.572526 13.227256 29.572526 29.572526l0 235.43001C858.845031 942.269557 819.049676 982.065935 770.125407 982.065935z" p-id="1061"></path><path d="M393.933489 681.482019c-7.826246 0-15.595186-3.146667-21.140483-8.691963-10.04989-10.04989-10.04989-10.04989-4.043083-82.685187l6.439666-76.878948c3.234671-39.073924 27.522844-91.462085 55.276954-119.216195l282.9677-282.995329c33.355689-33.327036 92.0116-33.415041 125.455293-0.029676l95.708805 95.766111c34.597983 34.597983 34.597983 90.856287 0 125.455293L651.60199 615.145172c-27.753087 27.753087-80.141248 52.04126-119.216195 55.304583l-76.878948 6.383384C418.452929 679.922501 397.745305 681.482019 393.933489 681.482019zM776.16189 144.254451c-7.941879 0-15.364943 3.060709-20.909216 8.578376l-282.9677 282.995329c-18.194384 18.225083-36.042891 56.662511-38.150902 82.308611L427.694407 595.014692c-0.722454 8.894577-1.415232 17.358343-2.022053 24.923646 7.567349-0.606821 16.029068-1.300622 24.923646-2.050706l76.878948-6.381337c25.6461-2.137687 64.084551-19.98517 82.308611-38.180578l282.996352-282.939047c11.524474-11.522428 11.524474-30.29498 0-41.818431l-95.767134-95.794763C791.526833 147.31516 784.10377 144.254451 776.16189 144.254451z" p-id="1062"></path></svg>