<?xml version="1.0" standalone="no"?><!DOCTYPE svg PUBLIC "-//W3C//DTD SVG 1.1//EN" "http://www.w3.org/Graphics/SVG/1.1/DTD/svg11.dtd"><svg t="1532428703102" class="icon" style="" viewBox="0 0 1024 1024" version="1.1" xmlns="http://www.w3.org/2000/svg" p-id="952" xmlns:xlink="http://www.w3.org/1999/xlink" width="200" height="200"><defs><style type="text/css"></style></defs><path d="M951.838926 47.007785v767.518926l-439.838926 181.158658-439.838926-181.158658V47.007785l166.314094 166.314094a41.234899 41.234899 0 0 0 45.908188 8.521879L512 120.680805l227.616644 101.162953a41.234899 41.234899 0 0 0 45.908188-8.521879L951.838926 47.007785M965.583893 0a13.470067 13.470067 0 0 0-9.621477 4.12349l-189.680537 189.680537a13.744966 13.744966 0 0 1-15.394362 2.748993L517.497987 93.190872a13.744966 13.744966 0 0 0-11.270873 0L273.112483 196.827919a13.744966 13.744966 0 0 1-15.394362-2.748993L68.037584 4.398389A13.470067 13.470067 0 0 0 58.416107 0.274899a13.744966 13.744966 0 0 0-13.744966 13.744967v809.578523a13.744966 13.744966 0 0 0 8.521879 12.645369l453.583893 186.656645a13.744966 13.744966 0 0 0 10.446174 0l453.583893-186.656645a13.744966 13.744966 0 0 0 8.521879-12.645369V13.744966a13.744966 13.744966 0 0 0-13.744966-13.744966z" p-id="953"></path><path d="M388.295302 530.555705a13.744966 13.744966 0 0 1-7.147383-1.924296l-137.449664-82.469798a13.744966 13.744966 0 0 1 14.019866-23.641343l137.449664 82.469799a13.744966 13.744966 0 0 1-7.147382 25.565638zM635.704698 530.555705a13.744966 13.744966 0 0 1-7.147383-25.565638l137.449665-82.469799a13.744966 13.744966 0 1 1 14.019866 23.641343l-137.449665 82.469798a13.744966 13.744966 0 0 1-6.872483 1.924296zM717.349799 675.152752l87.967785 197.927516L512 995.41047 218.682416 873.355168l87.967785-197.927517 190.780135 71.473826a41.234899 41.234899 0 0 0 28.864429 0l190.780134-71.473826m7.422282-31.063624a13.744966 13.744966 0 0 0-4.948188 0l-202.600805 76.696913a13.744966 13.744966 0 0 1-9.621477 0l-202.875704-76.147114a13.744966 13.744966 0 0 0-17.318658 7.422281l-98.963758 222.668457a13.744966 13.744966 0 0 0 7.147382 18.143355l311.735839 129.752484a13.744966 13.744966 0 0 0 10.446175 0l311.735839-129.752484a13.744966 13.744966 0 0 0 7.147382-18.143355l-98.963758-222.668457a13.744966 13.744966 0 0 0-12.645369-8.246979z" p-id="954"></path><path d="M621.959732 874.179866a13.744966 13.744966 0 0 1-6.047786-1.374497L512 820.849396l-103.911946 51.955973a13.744966 13.744966 0 0 1-12.37047-24.46604l109.959731-54.979866a13.744966 13.744966 0 0 1 12.37047 0l109.959732 54.979866a13.744966 13.744966 0 0 1-6.047785 26.115436z" p-id="955"></path></svg>