<?xml version="1.0" standalone="no"?><!DOCTYPE svg PUBLIC "-//W3C//DTD SVG 1.1//EN" "http://www.w3.org/Graphics/SVG/1.1/DTD/svg11.dtd"><svg t="1532574256045" class="icon" style="" viewBox="0 0 1071 1024" version="1.1" xmlns="http://www.w3.org/2000/svg" p-id="1090" xmlns:xlink="http://www.w3.org/1999/xlink" width="209.1796875" height="200"><defs><style type="text/css"></style></defs><path d="M940.194373 0h-811.867007C57.616368 0 0 57.616368 0 128.327366v576.163683c0 70.710997 57.616368 128.327366 128.327366 128.327365h811.867007c70.710997 0 128.327366-57.616368 128.327366-128.327365v-576.163683c2.618926-70.710997-54.997442-128.327366-128.327366-128.327366z m57.616369 704.491049c0 31.42711-26.189258 54.997442-54.997443 54.997442H130.946292c-31.42711 0-54.997442-26.189258-54.997443-54.997442v-576.163683c0-31.42711 26.189258-54.997442 54.997443-54.997443h811.867007c31.42711 0 54.997442 26.189258 54.997443 54.997443v576.163683zM906.148338 948.051151h-204.276215v-20.951407c0-18.332481-13.094629-31.42711-31.42711-31.42711H377.12532c-18.332481 0-31.42711 13.094629-31.42711 31.42711v20.951407H144.040921c-20.951407 0-36.664962 15.713555-36.664962 36.664962S123.089514 1021.381074 144.040921 1021.381074h762.107417c20.951407 0 36.664962-15.713555 36.664961-36.664961s-15.713555-36.664962-36.664961-36.664962z" fill="" p-id="1091"></path><path d="M531.641944 319.508951c-102.138107 0-188.56266 49.759591-230.465473 78.567775-13.094629 7.856777-13.094629 28.808184 0 36.664962 41.902813 28.808184 128.327366 78.567775 230.465473 78.567775 102.138107 0 188.56266-49.759591 230.465473-78.567775 13.094629-7.856777 13.094629-28.808184 0-36.664962-39.283887-26.189258-128.327366-78.567775-230.465473-78.567775z m0 180.705883c-47.140665 0-83.805627-36.664962-83.805627-83.805627 0-47.140665 36.664962-83.805627 83.805627-83.805626 47.140665 0 83.805627 36.664962 83.805626 83.805626 0 47.140665-36.664962 83.805627-83.805626 83.805627z" fill="" p-id="1092"></path><path d="M531.641944 416.409207m-41.902814 0a41.902813 41.902813 0 1 0 83.805627 0 41.902813 41.902813 0 1 0-83.805627 0Z" fill="" p-id="1093"></path></svg>