<?xml version="1.0" standalone="no"?><!DOCTYPE svg PUBLIC "-//W3C//DTD SVG 1.1//EN" "http://www.w3.org/Graphics/SVG/1.1/DTD/svg11.dtd"><svg t="1532938144669" class="icon" style="" viewBox="0 0 1024 1024" version="1.1" xmlns="http://www.w3.org/2000/svg" p-id="695" xmlns:xlink="http://www.w3.org/1999/xlink" width="200" height="200"><defs><style type="text/css"></style></defs><path d="M149.3 910.8c4.9-71 14.8-167 36.6-255 4.5-22.7 20.7-41.8 21.2-42.5 2.1-13.5 167.5-13.5 167.5-13.5l27.4-2.6c-3.9 24.2-6.9 61.1 3.6 92.7 13.5 41.5 35.1 82.7 64.4 107.2l6.2-110.3h56.4l9.7 103.4c20.5-29.3 44.4-75.5 46.9-134.3 2-46 13.5-67 23.4-76.7 68.5 2.8 154.5 15.3 189 34.2 32.9 18 43.2 130.5 73 297.5l-725.3-0.1z m0 0" p-id="696"></path><path d="M525.7 670.9h-35.4L462 647.2l42.5-55.3 42.4 47.4-21.2 31.6z m187.8-469.5c-16.9-33.9-115.3-84.7-222.7-88.2-107.3-3.6-221 58.7-220.1 104.3 0.9 45.5 57.2 65.1 57.2 65.1-2.9 8.8-1.4 43-1.4 43s2.6 4.7 7.5 11.3c-16.6 218.7 174.6 222.4 174.6 222.4 165.7-17.2 152.5-197.2 150.9-223.2-0.6-9.5-1.8-17.1-3.2-23.9 2.1-14.7-3.7-29.9-3.7-29.9 24.2-9.6 77.9-47.1 60.9-80.9z m-249.8-17.1c-0.2-1.4-0.4-2.9-0.4-4.4 0-18.4 16.2-33.4 36.3-33.4s36.3 15 36.3 33.4c0 2.3-0.3 4.6-0.8 6.9 10.8-1 22.5-1.9 33.1-2.1 0 0-30.2 14.1-47.4 22.4-2.6 1.7-5.3 3-8.4 4.1-0.2 0.1-0.4 0.3-0.7 0.4 0 0-1 0.3-2.6 0.5-3 0.8-6.2 1.3-9.5 1.3-0.6 0-1.2-0.2-1.9-0.2-8 0-18.2-1.6-26.4-8.5 0 0-12.4-8.5-40.4-20.1 0 0.1 14.9-1.8 32.8-0.3z m161.6 96.1H350.9V248h274.5v32.4z m0 0" p-id="697"></path></svg>