<?xml version="1.0" standalone="no"?><!DOCTYPE svg PUBLIC "-//W3C//DTD SVG 1.1//EN" "http://www.w3.org/Graphics/SVG/1.1/DTD/svg11.dtd"><svg t="1532496472971" class="icon" style="" viewBox="0 0 1024 1024" version="1.1" xmlns="http://www.w3.org/2000/svg" p-id="987" xmlns:xlink="http://www.w3.org/1999/xlink" width="200" height="200"><defs><style type="text/css"></style></defs><path d="M952.72 136.496c-0.048 0 0.032 586 0.032 586 0 0.064-881.456 0.064-881.456 0.064 0.032 0-0.032-586-0.032-586 0-0.08 881.456-0.064 881.456-0.064zM0.736 722.48a70.624 70.624 0 0 0 70.56 70.576h881.424a70.512 70.512 0 0 0 70.544-70.576V136.544c0-38.88-31.616-70.56-70.544-70.56H71.296a70.528 70.528 0 0 0-70.56 70.56v585.936z m839.536 235.536a35.28 35.28 0 0 0 35.28-35.264v-1.632a35.264 35.264 0 0 0-35.28-35.248H183.712a35.264 35.264 0 0 0-35.264 35.248v1.632c0 19.472 15.792 35.264 35.264 35.264h656.56z m-364.336-71.328h70.512v-93.632h-68.88l-1.632 93.632z" p-id="988"></path><path d="M230.672 525.344m-50.672 0a50.672 50.672 0 1 0 101.344 0 50.672 50.672 0 1 0-101.344 0Z" p-id="989"></path><path d="M412 357.328m-50.672 0a50.672 50.672 0 1 0 101.344 0 50.672 50.672 0 1 0-101.344 0Z" p-id="990"></path><path d="M570.672 534.528m-50.672 0a50.672 50.672 0 1 0 101.344 0 50.672 50.672 0 1 0-101.344 0Z" p-id="991"></path><path d="M767.12 345.472m-50.672 0a50.672 50.672 0 1 0 101.344 0 50.672 50.672 0 1 0-101.344 0Z" p-id="992"></path><path d="M215.568 510.416l176.176-164.96 30.08 32.128-176.176 164.96zM560.896 510.4l176.192-164.96 30.08 32.128-176.176 164.96z" p-id="993"></path><path d="M564.032 559.472L403.152 379.568l32.832-29.344 160.88 179.888z" p-id="994"></path></svg>