<?xml version="1.0" encoding="utf-8"?>
<!-- Generator: Adobe Illustrator 19.0.0, SVG Export Plug-In . SVG Version: 6.00 Build 0)  -->
<svg version="1.1" id="图层_2" xmlns="http://www.w3.org/2000/svg" xmlns:xlink="http://www.w3.org/1999/xlink" x="0px" y="0px"
	 viewBox="-190 192.2 17.8 17.8" style="enable-background:new -190 192.2 17.8 17.8;" xml:space="preserve">
<style type="text/css">
	.st0{fill:#397CBF;}
	.st1{fill:#FFFFFF;}
</style>
<path class="st0" d="M-173.7,196.6l-4.2-4.2c-0.1-0.1-0.2-0.1-0.3-0.1h-8.9c-0.8,0-1.4,0.6-1.4,1.4v15c0,0.8,0.6,1.4,1.4,1.4h12.2
	c0.8,0,1.4-0.6,1.4-1.4v-11.7C-173.6,196.8-173.7,196.6-173.7,196.6z"/>
<path class="st1" d="M-174.7,196.9h-3.1c-0.3,0-0.5-0.2-0.5-0.5v-3.1L-174.7,196.9z"/>
<path class="st0" d="M-174.5,208.6c0,0.3-0.2,0.5-0.5,0.5h-12.2c-0.3,0-0.5-0.2-0.5-0.5v-15c0-0.3,0.2-0.5,0.5-0.5h8v3.3
	c0,0.8,0.6,1.4,1.4,1.4h3.3L-174.5,208.6L-174.5,208.6z"/>
<path class="st1" d="M-185.2,203.4h2.2c0.2,0,0.4,0.1,0.4,0.4c0,0.1,0,0.2-0.1,0.3c-0.1,0.1-0.2,0.1-0.3,0.1h-2.2
	c-0.2,0-0.4-0.1-0.4-0.4c0-0.1,0-0.2,0.1-0.3C-185.5,203.4-185.4,203.4-185.2,203.4z M-179.3,205.7c0,0.2-0.2,0.4-0.4,0.4h-5.5
	c-0.2,0-0.4-0.1-0.4-0.4c0-0.1,0-0.2,0.1-0.3c0.1-0.1,0.2-0.1,0.3-0.1h5.6c0.1,0,0.2,0,0.3,0.1
	C-179.3,205.5-179.3,205.6-179.3,205.7z"/>
<path class="st1" d="M-176.5,200.2l-0.8-0.9c-0.1-0.1-0.2-0.1-0.3,0l-3.4,2.9c0,0-0.1,0.1-0.1,0.1l-0.3,1.1c0,0.1,0,0.2,0,0.2
	c0.1,0.1,0.1,0.1,0.2,0.1l1.1-0.1c0,0,0,0,0.1,0c0,0,0,0,0,0l3.4-2.9C-176.4,200.4-176.4,200.2-176.5,200.2L-176.5,200.2z
	 M-180,203.2c0,0-0.1,0.1-0.1,0.1l-0.9,0.1c0,0-0.1,0-0.1,0c0,0,0-0.1,0-0.1l0.2-0.8c0-0.1,0.1-0.1,0.1-0.1c0,0,0,0,0,0h0
	c0,0,0,0,0,0c0,0,0,0,0,0l0.7,0.8C-180,203.1-180,203.1-180,203.2C-180,203.2-180,203.2-180,203.2L-180,203.2z M-177.1,200.8
	c0,0-0.1,0-0.1,0l-0.8-0.9c0,0,0-0.1,0-0.1c0,0,0-0.1,0.1-0.1c0,0,0.1,0,0.1,0l0.8,0.9C-177.1,200.7-177.1,200.7-177.1,200.8
	C-177.1,200.8-177.1,200.8-177.1,200.8z"/>
</svg>
