<?xml version="1.0" encoding="utf-8"?>
<!-- Generator: Adobe Illustrator 19.0.0, SVG Export Plug-In . SVG Version: 6.00 Build 0)  -->
<svg version="1.1" id="图层_2" xmlns="http://www.w3.org/2000/svg" xmlns:xlink="http://www.w3.org/1999/xlink" x="0px" y="0px"
	 viewBox="-190 192.2 17.8 17.8" style="enable-background:new -190 192.2 17.8 17.8;" xml:space="preserve">
<style type="text/css">
	.st0{fill:#75787A;}
</style>
<path class="st0" d="M-177.4,209h-7.4c-0.2,0-0.4-0.2-0.4-0.4c0-0.2,0.2-0.4,0.4-0.4h7.4c0.2,0,0.4,0.2,0.4,0.4
	C-176.9,208.8-177.1,209-177.4,209z"/>
<path class="st0" d="M-181.1,208.4c-0.2,0-0.4-0.2-0.4-0.4v-2.2c0-0.2,0.2-0.4,0.4-0.4c0.2,0,0.4,0.2,0.4,0.4v2.2
	C-180.7,208.2-180.9,208.4-181.1,208.4z"/>
<path class="st0" d="M-173,193.7h-16.2c-0.2,0-0.4,0.2-0.4,0.4v11.6c0,0.2,0.2,0.4,0.4,0.4h16.2c0.2,0,0.4-0.2,0.4-0.4v-11.6
	C-172.6,193.9-172.7,193.7-173,193.7z M-173.4,205.3h-15.3v-10.7h15.3V205.3z"/>
<path class="st0" d="M-182.5,199.5h1.8c-0.4,1.8-1.4,3.3-2.9,4.3c2.4-0.3,4.3-2,4.8-4.3h1.9l-2.8-3.5L-182.5,199.5z"/>
</svg>
