<?xml version="1.0" encoding="utf-8"?>
<!-- Generator: Adobe Illustrator 19.0.0, SVG Export Plug-In . SVG Version: 6.00 Build 0)  -->
<svg version="1.1" id="图层_2" xmlns="http://www.w3.org/2000/svg" xmlns:xlink="http://www.w3.org/1999/xlink" x="0px" y="0px"
	 viewBox="-190 192.2 17.8 17.8" style="enable-background:new -190 192.2 17.8 17.8;" xml:space="preserve">
<style type="text/css">
	.st0{fill:#75787A;}
</style>
<path class="st0" d="M-174.4,192.5h-11.4c-1,0-1.9,0.8-1.9,1.9v0.2h-0.2c-1,0-1.9,0.8-1.9,1.9v11.4c0,1,0.8,1.9,1.9,1.9h11.4
	c1,0,1.9-0.8,1.9-1.9v-0.2h0.2c1,0,1.9-0.8,1.9-1.9v-11.4C-172.5,193.3-173.3,192.5-174.4,192.5z M-175.4,207.8c0,0.5-0.4,1-1,1
	h-11.4c-0.5,0-1-0.4-1-1v-11.4c0-0.5,0.4-1,1-1h11.4c0.5,0,1,0.4,1,1V207.8L-175.4,207.8z M-173.4,205.8c0,0.5-0.4,1-1,1h-0.2v-10.4
	c0-1-0.8-1.9-1.9-1.9h-10.4v-0.2c0-0.5,0.4-1,1-1h11.4c0.5,0,1,0.4,1,1V205.8L-173.4,205.8z"/>
<path class="st0" d="M-179.6,203.8c0.6-0.8,1-1.7,1-2.7c0-1.1-0.5-2.1-1.3-2.9c-0.8-0.7-1.8-1.1-2.8-1.1c-1.1,0-2.2,0.5-3,1.3
	c-0.8,0.8-1.1,1.8-1.1,2.9c0,1.1,0.5,2.1,1.3,2.9c0.8,0.7,1.8,1.1,2.8,1.1c1,0,1.9-0.4,2.6-1l2.1,2.1c0.1,0.1,0.2,0.1,0.3,0.1
	s0.2,0,0.3-0.1c0.2-0.2,0.2-0.4,0-0.6L-179.6,203.8z M-185,203.6c-0.6-0.6-1-1.4-1-2.3c0-0.9,0.3-1.7,0.9-2.4c0.6-0.7,1.5-1,2.4-1
	c0.9,0,1.7,0.3,2.3,0.9c0.6,0.6,1,1.4,1,2.3c0,0.9-0.3,1.7-0.9,2.4c-0.6,0.7-1.5,1-2.4,1C-183.6,204.5-184.4,204.2-185,203.6z"/>
</svg>
