<?xml version="1.0" encoding="UTF-8"?>
<svg width="20px" height="20px" viewBox="0 0 20 20" version="1.1" xmlns="http://www.w3.org/2000/svg" xmlns:xlink="http://www.w3.org/1999/xlink">
    <!-- Generator: Sketch 51.2 (57519) - http://www.bohemiancoding.com/sketch -->
    <title>基础设施@1x</title>
    <desc>Created with Sketch.</desc>
    <defs></defs>
    <g id="Page-1" stroke="none" stroke-width="1" fill="none" fill-rule="evenodd">
        <g id="Desktop-HD" transform="translate(-13.000000, -138.000000)" fill="#397CBF">
            <g id="左侧导航" transform="translate(0.000000, 56.000000)">
                <g id="基础设施" transform="translate(13.000000, 82.000000)">
                    <path d="M5.673648,15.608392 L8.337168,15.608392 C8.705808,15.608392 9.004608,15.9054943 9.004608,16.2719602 C9.004608,16.6384261 8.705808,16.9355284 8.337168,16.9355284 L5.673968,16.9355284 C5.305408,16.937358 5.005088,16.641767 5.003248,16.2753011 C5.003248,15.9053352 5.304208,15.608392 5.673648,15.608392 Z M17.349968,7.31339205 C17.349968,7.67985795 17.051168,7.97696023 16.682608,7.97696023 C16.313968,7.97696023 16.015168,7.67985795 16.015168,7.31339205 L16.015168,4.65999432 C16.015168,4.47680114 15.866368,4.32717614 15.682448,4.32717614 L3.667488,4.32717614 C3.485968,4.32717614 3.334768,4.47648295 3.334768,4.65999432 L3.334768,12.621142 C3.334768,12.8043352 3.483648,12.9539602 3.667488,12.9539602 L6.671728,12.9539602 C7.040288,12.9539602 7.339088,13.2510625 7.339088,13.6175284 C7.339088,13.9840739 7.040288,14.2811761 6.671728,14.2811761 L2.669408,14.2811761 C2.300768,14.2822898 2.001088,13.9860625 1.999968,13.619517 C1.999968,13.6190928 1.999968,10.3004564 1.999968,3.66360795 C1.999968,3.29698295 2.299648,3.00003977 2.669408,3.00003977 L16.680608,3.00003977 C17.049168,2.99892614 17.348848,3.29515341 17.349968,3.66161932 C17.349968,3.66204356 17.349968,4.87930114 17.349968,7.31339205 Z M13.821168,16.7052443 C13.659968,16.529767 13.150448,16.0731761 12.732608,16.0731761 C12.318208,16.0731761 11.800288,16.5327102 11.651488,16.6929943 C11.533648,16.8207443 11.352128,16.8967102 11.165568,16.8967102 C11.076848,16.8967102 10.993088,16.8798466 10.916688,16.8462784 L9.634608,16.1352216 C9.389488,15.9602216 9.304528,15.6558807 9.417728,15.3946534 C9.418368,15.3926648 9.534528,15.1265852 9.534528,14.883017 C9.533568,14.1449148 8.932048,13.5468125 8.189728,13.5459375 L8.136288,13.5459375 C7.924128,13.5459375 7.750928,13.3581307 7.695808,13.068108 C7.691168,13.0448807 7.587408,12.494108 7.587408,12.0604261 C7.587408,11.626108 7.690848,11.0756534 7.695488,11.0517898 C7.751888,10.758108 7.928048,10.5693466 8.144688,10.5742784 L8.189408,10.5742784 C8.932048,10.5734034 9.533808,9.97490341 9.534528,9.23648295 C9.534528,8.99363068 9.418368,8.72755114 9.417328,8.72452841 C9.304448,8.46322159 9.390368,8.15896023 9.623568,7.99422159 L10.975728,7.25365341 C11.064848,7.21586932 11.147248,7.19988068 11.234688,7.19988068 C11.420848,7.19988068 11.602768,7.2739375 11.721888,7.39898295 C11.880368,7.56388068 12.381248,7.99294886 12.786368,7.99294886 C13.188128,7.99294886 13.686368,7.57223295 13.844208,7.41027841 C13.962608,7.28785795 14.143168,7.21515341 14.327328,7.21515341 C14.416448,7.21515341 14.500528,7.23177841 14.577648,7.26494886 L15.884048,7.9853125 C16.128288,8.1541875 16.216368,8.46902841 16.101648,8.7255625 C16.100928,8.72755114 15.984848,8.99363068 15.984848,9.23648295 C15.985728,9.97466477 16.587248,10.5728466 17.329648,10.5739602 L17.374688,10.5739602 C17.590528,10.5693466 17.767728,10.7577898 17.823808,11.0517898 C17.828128,11.075017 17.931968,11.626108 17.931968,12.0597898 C17.931968,12.4937898 17.828128,13.0451989 17.823168,13.0684261 C17.767728,13.3617102 17.590528,13.5505511 17.374688,13.5455398 L17.329648,13.5455398 C16.587248,13.5466534 15.985728,14.1449148 15.984848,14.883017 C15.984848,15.1259489 16.100928,15.3926648 16.101968,15.3950511 C16.214928,15.6564375 16.129328,15.9607784 15.896368,16.1259943 L14.567968,16.857892 C14.477408,16.896233 14.394288,16.912858 14.310368,16.9123011 C14.122128,16.911983 13.939248,16.8346648 13.821168,16.7052443 Z" id="Fill-1"></path>
                </g>
            </g>
        </g>
    </g>
</svg>