<?xml version="1.0" encoding="utf-8"?>
<!-- Generator: Adobe Illustrator 19.0.0, SVG Export Plug-In . SVG Version: 6.00 Build 0)  -->
<svg version="1.1" id="图层_1" xmlns="http://www.w3.org/2000/svg" xmlns:xlink="http://www.w3.org/1999/xlink" x="0px" y="0px"
	 viewBox="-190 192.2 17.8 17.8" style="enable-background:new -190 192.2 17.8 17.8;" xml:space="preserve">
<style type="text/css">
	.st0{fill:#397CBF;}
	.st1{fill:#FFFFFF;}
</style>
<path class="st0" d="M-181.1,210c4.9,0,8.9-4,8.9-8.9c0-4.9-4-8.9-8.9-8.9s-8.9,4-8.9,8.9C-190,206-186,210-181.1,210L-181.1,210z"
	/>
<path class="st0" d="M-181.1,193c4.5,0,8.2,3.6,8.2,8.1c0,4.5-3.7,8.1-8.2,8.1c-4.5,0-8.2-3.6-8.2-8.1
	C-189.3,196.6-185.6,193-181.1,193z"/>
<path class="st1" d="M-181,204.5c2.2,0,4.1-1.4,4.9-3.4c-0.8-2-2.7-3.4-4.9-3.4c-2.2,0-4.1,1.4-4.9,3.4
	C-185.2,203.1-183.3,204.5-181,204.5z"/>
<path class="st0" d="M-181,198.4c1.9,0,3.5,1.1,4.2,2.7c-0.8,1.6-2.3,2.7-4.2,2.7c-1.9,0-3.5-1.1-4.2-2.7
	C-184.5,199.5-182.9,198.4-181,198.4z"/>
<ellipse class="st1" cx="-181" cy="201.1" rx="1.8" ry="1.8"/>
<ellipse class="st0" cx="-181" cy="201.1" rx="1.1" ry="1.1"/>
</svg>
