<?xml version="1.0" encoding="utf-8"?>
<!-- Generator: Adobe Illustrator 19.0.0, SVG Export Plug-In . SVG Version: 6.00 Build 0)  -->
<svg version="1.1" id="图层_2" xmlns="http://www.w3.org/2000/svg" xmlns:xlink="http://www.w3.org/1999/xlink" x="0px" y="0px"
	 viewBox="-190 192.2 17.8 17.8" style="enable-background:new -190 192.2 17.8 17.8;" xml:space="preserve">
<style type="text/css">
	.st0{fill:#75787A;}
</style>
<path class="st0" d="M-181.1,192.2c-4.9,0-8.9,4-8.9,8.9s4,8.9,8.9,8.9s8.9-4,8.9-8.9S-176.2,192.2-181.1,192.2z M-181.1,209.1
	c-4.4,0-8-3.6-8-8s3.6-8,8-8c4.4,0,8,3.6,8,8C-173.1,205.5-176.7,209.1-181.1,209.1z M-181.1,197.4c-3.4,0-5.2,3.7-5.2,3.7
	s1.8,3.7,5.2,3.7c3.2,0,5.2-3.7,5.2-3.7S-177.9,197.4-181.1,197.4z M-181.1,203.4c-1.2,0-2.2-1-2.2-2.2c0-1.2,1-2.2,2.2-2.2
	c1.2,0,2.2,1,2.2,2.2C-178.9,202.4-179.9,203.4-181.1,203.4z M-181.1,199.7c-0.1,0-0.3,0-0.4,0.1l0.4,1.4l-1.3-0.5
	c-0.1,0.2-0.1,0.4-0.1,0.5c0,0.8,0.6,1.4,1.4,1.4s1.5-0.6,1.5-1.4C-179.7,200.3-180.3,199.7-181.1,199.7z"/>
</svg>
