<?xml version="1.0" encoding="utf-8"?>
<!-- Generator: Adobe Illustrator 19.0.0, SVG Export Plug-In . SVG Version: 6.00 Build 0)  -->
<svg version="1.1" id="图层_2" xmlns="http://www.w3.org/2000/svg" xmlns:xlink="http://www.w3.org/1999/xlink" x="0px" y="0px"
	 viewBox="-190 192.2 17.8 17.8" style="enable-background:new -190 192.2 17.8 17.8;" xml:space="preserve">
<style type="text/css">
	.st0{fill:#75787A;}
</style>
<path class="st0" d="M-177.3,209h-7.4c-0.2,0-0.4-0.2-0.4-0.4s0.2-0.4,0.4-0.4h7.4c0.2,0,0.4,0.2,0.4,0.4S-177.1,209-177.3,209z"/>
<path class="st0" d="M-181.1,208.3c-0.2,0-0.4-0.2-0.4-0.4v-2.2c0-0.2,0.2-0.4,0.4-0.4s0.4,0.2,0.4,0.4v2.2
	C-180.6,208.1-180.8,208.3-181.1,208.3z"/>
<path class="st0" d="M-172.9,206.1h-16.3c-0.2,0-0.4-0.2-0.4-0.4v-11.6c0-0.2,0.2-0.4,0.4-0.4h16.3c0.2,0,0.4,0.2,0.4,0.4v11.6
	C-172.6,205.9-172.8,206.1-172.9,206.1z M-188.8,205.2h15.4v-10.7h-15.4V205.2z"/>
<path class="st0" d="M-180.4,201.2l3.4-2.3c0.2-0.1,0.2-0.4,0.1-0.6c0-0.1-0.1-0.1-0.1-0.1l-3.4-2.3c-0.4-0.2-0.8-0.2-1.2,0
	l-3.4,2.3c-0.2,0.1-0.2,0.4-0.1,0.6c0,0.1,0.1,0.1,0.1,0.1l3.4,2.3C-181.3,201.4-180.8,201.4-180.4,201.2L-180.4,201.2z
	 M-180.7,202.5c-0.2,0.1-0.4,0.1-0.6,0l-3-2c-0.2-0.1-0.4-0.1-0.6,0c-0.2,0.1-0.2,0.3-0.1,0.5c0,0.1,0.1,0.1,0.1,0.1l3.4,2.2
	c0.4,0.2,0.8,0.2,1.2,0l3.4-2.2c0.2-0.1,0.2-0.3,0.1-0.5c0-0.1-0.1-0.1-0.1-0.1l0,0c-0.2-0.1-0.4-0.1-0.6,0L-180.7,202.5z"/>
</svg>
