<?xml version="1.0" encoding="utf-8"?>
<!-- Generator: Adobe Illustrator 19.0.0, SVG Export Plug-In . SVG Version: 6.00 Build 0)  -->
<svg version="1.1" id="图层_2" xmlns="http://www.w3.org/2000/svg" xmlns:xlink="http://www.w3.org/1999/xlink" x="0px" y="0px"
	 viewBox="-190 192.2 17.8 17.8" style="enable-background:new -190 192.2 17.8 17.8;" xml:space="preserve">
<style type="text/css">
	.st0{fill:#75787A;}
	.st1{fill:#FFFFFF;}
</style>
<path class="st0" d="M-181.1,192.5c-4.7,0-8.6,3.9-8.6,8.6s3.9,8.6,8.6,8.6s8.6-3.9,8.6-8.6S-176.4,192.5-181.1,192.5z
	 M-181.1,208.8c-4.3,0-7.7-3.5-7.7-7.7c0-4.3,3.5-7.7,7.7-7.7c4.3,0,7.7,3.5,7.7,7.7C-173.4,205.4-176.8,208.8-181.1,208.8z"/>
<path class="st1" d="M-182.7,198.6c-1.1,0-1.9,0.9-1.9,1.9c0,0.5,0.2,1.1,0.6,1.4l2.8,2.8c0.1,0.1,0.3,0.1,0.4,0l2.8-2.8
	c0.8-0.8,0.8-2,0-2.8c-0.8-0.8-2-0.8-2.8,0c-0.1,0.1-0.3,0.1-0.4,0C-181.8,198.9-182.3,198.6-182.7,198.6z"/>
<path class="st0" d="M-177.6,198.6c-0.8-0.8-2.2-0.8-3,0l-0.5,0.5l-0.5-0.5c-0.8-0.8-2.2-0.8-3,0c-0.8,0.8-0.8,2.2,0,3.1l0.5,0.5
	l3,3.1l3-3.1l0.5-0.5C-176.7,200.8-176.7,199.5-177.6,198.6L-177.6,198.6z M-179,202.2l-2,2.1l-2-2.1l-1-1c-0.5-0.6-0.5-1.5,0-2.1
	c0.5-0.6,1.4-0.6,2,0l1,1l1-1c0.5-0.6,1.4-0.6,2,0c0.5,0.6,0.5,1.5,0,2.1L-179,202.2L-179,202.2z"/>
</svg>
