<?xml version="1.0" encoding="utf-8"?>
<!-- Generator: Adobe Illustrator 19.0.0, SVG Export Plug-In . SVG Version: 6.00 Build 0)  -->
<svg version="1.1" id="图层_2" xmlns="http://www.w3.org/2000/svg" xmlns:xlink="http://www.w3.org/1999/xlink" x="0px" y="0px"
	 viewBox="-190 192.2 17.8 17.8" style="enable-background:new -190 192.2 17.8 17.8;" xml:space="preserve">
<style type="text/css">
	.st0{fill:#397CBF;}
	.st1{fill:#FFFFFF;}
</style>
<path class="st0" d="M-177.4,208.8h-7.4c-0.2,0-0.4-0.2-0.4-0.4s0.2-0.4,0.4-0.4h7.4c0.2,0,0.4,0.2,0.4,0.4
	S-177.2,208.8-177.4,208.8z"/>
<path class="st0" d="M-181.2,208.2c-0.2,0-0.4-0.2-0.4-0.4v-2.2c0-0.2,0.2-0.4,0.4-0.4c0.2,0,0.4,0.2,0.4,0.4v2.2
	C-180.7,208-180.9,208.2-181.2,208.2z"/>
<path class="st0" d="M-173,206h-16.3c-0.2,0-0.4-0.2-0.4-0.4v-11.6c0-0.2,0.2-0.4,0.4-0.4h16.3c0.2,0,0.4,0.2,0.4,0.4v11.6
	C-172.6,205.8-172.8,206-173,206z"/>
<path class="st1" d="M-185.5,200.4h2.5c0.2,0,0.4,0.2,0.5,0.4c0,0.1,0,0.2-0.1,0.3c-0.1,0.1-0.2,0.1-0.3,0.1h-2.5
	c-0.2,0-0.4-0.2-0.5-0.4c0-0.1,0-0.3,0.1-0.3C-185.7,200.5-185.6,200.4-185.5,200.4z M-178.7,203c0,0.2-0.2,0.4-0.5,0.4h-6.2
	c-0.2,0-0.4-0.2-0.5-0.4c0-0.1,0-0.3,0.1-0.3s0.2-0.1,0.3-0.1h6.3c0.1,0,0.2,0.1,0.3,0.1C-178.8,202.8-178.7,202.9-178.7,203z"/>
<path class="st1" d="M-175.6,196.8l-0.9-1c-0.1-0.1-0.2-0.1-0.4,0l-3.8,3.3c0,0-0.1,0.1-0.1,0.1l-0.4,1.2c0,0.1,0,0.2,0.1,0.2
	c0.1,0.1,0.1,0.1,0.2,0.1l1.3-0.2c0,0,0.1,0,0.1,0c0,0,0,0,0,0l3.8-3.3C-175.5,197-175.5,196.9-175.6,196.8L-175.6,196.8z
	 M-179.5,200.2c0,0.1-0.1,0.1-0.1,0.1l-1,0.1c0,0-0.1,0-0.1,0c0,0,0-0.1,0-0.1l0.2-1c0-0.1,0.1-0.1,0.1-0.1c0,0,0,0,0,0h0
	c0,0,0,0,0,0c0,0,0,0,0,0l0.8,0.9C-179.6,200.1-179.5,200.1-179.5,200.2C-179.5,200.2-179.5,200.2-179.5,200.2L-179.5,200.2z
	 M-176.3,197.5c-0.1,0-0.1,0-0.2,0l-0.9-1c0,0,0-0.1,0-0.1c0,0,0-0.1,0.1-0.1c0,0,0.1,0,0.1,0l0.9,1
	C-176.3,197.4-176.3,197.4-176.3,197.5C-176.3,197.5-176.3,197.5-176.3,197.5z"/>
</svg>
