<?xml version="1.0" encoding="utf-8"?>
<!-- Generator: Adobe Illustrator 19.0.0, SVG Export Plug-In . SVG Version: 6.00 Build 0)  -->
<svg version="1.1" id="图层_2" xmlns="http://www.w3.org/2000/svg" xmlns:xlink="http://www.w3.org/1999/xlink" x="0px" y="0px"
	 viewBox="-190 192.2 17.8 17.8" style="enable-background:new -190 192.2 17.8 17.8;" xml:space="preserve">
<style type="text/css">
	.st0{fill:#397CBF;}
	.st1{fill:#FFFFFF;}
</style>
<path class="st0" d="M-177.4,208.8h-7.4c-0.2,0-0.4-0.2-0.4-0.4s0.2-0.4,0.4-0.4h7.4c0.2,0,0.4,0.2,0.4,0.4
	S-177.2,208.8-177.4,208.8z"/>
<path class="st0" d="M-173,205.9h-16.3c-0.2,0-0.4-0.2-0.4-0.4v-11.6c0-0.2,0.2-0.4,0.4-0.4h16.3c0.2,0,0.4,0.2,0.4,0.4v11.6
	C-172.6,205.7-172.8,205.9-173,205.9z"/>
<rect x="-188.9" y="194.3" class="st0" width="15.4" height="10.7"/>
<path class="st1" d="M-184.7,200.2c-0.8,0-1.5-0.7-1.5-1.5s0.7-1.5,1.5-1.5s1.5,0.7,1.5,1.5S-183.9,200.2-184.7,200.2z M-184.7,198
	c-0.3,0-0.6,0.3-0.6,0.6s0.3,0.6,0.6,0.6c0.3,0,0.6-0.3,0.6-0.6S-184.4,198-184.7,198z M-177.8,203.5c-0.2,0-0.4-0.2-0.4-0.4v-6.5
	c0-0.2,0.2-0.4,0.4-0.4s0.4,0.2,0.4,0.4v6.5C-177.3,203.3-177.5,203.5-177.8,203.5z"/>
<path class="st0" d="M-178.9,198.6c0,0.6,0.5,1.1,1.1,1.1s1.1-0.5,1.1-1.1s-0.5-1.1-1.1-1.1S-178.9,198.1-178.9,198.6z"/>
<path class="st1" d="M-177.8,200.2c-0.8,0-1.5-0.7-1.5-1.5s0.7-1.5,1.5-1.5s1.5,0.7,1.5,1.5S-176.9,200.2-177.8,200.2z M-177.8,198
	c-0.3,0-0.6,0.3-0.6,0.6s0.3,0.6,0.6,0.6s0.6-0.3,0.6-0.6S-177.4,198-177.8,198z M-181.2,203.5c-0.2,0-0.4-0.2-0.4-0.4v-6.5
	c0-0.2,0.2-0.4,0.4-0.4c0.2,0,0.4,0.2,0.4,0.4v6.5C-180.7,203.3-180.9,203.5-181.2,203.5z"/>
<path class="st0" d="M-182.2,200.9c0,0.6,0.5,1.1,1.1,1.1c0.6,0,1.1-0.5,1.1-1.1c0-0.6-0.5-1.1-1.1-1.1
	C-181.8,199.9-182.2,200.3-182.2,200.9C-182.2,200.9-182.2,200.9-182.2,200.9z"/>
<path class="st0" d="M-181.1,208.1c-0.2,0-0.4-0.2-0.4-0.4v-2.2c0-0.2,0.2-0.4,0.4-0.4c0.2,0,0.4,0.2,0.4,0.4v2.2
	C-180.7,207.9-180.9,208.1-181.1,208.1z"/>
<path class="st1" d="M-184.7,203.5c-0.2,0-0.4-0.2-0.4-0.4v-6.5c0-0.2,0.2-0.4,0.4-0.4c0.2,0,0.4,0.2,0.4,0.4v6.5
	C-184.3,203.3-184.5,203.5-184.7,203.5z"/>
<path class="st1" d="M-185.8,198.6c0,0.6,0.5,1.1,1.1,1.1c0.6,0,1.1-0.5,1.1-1.1v0c0-0.6-0.5-1.1-1.1-1.1
	C-185.3,197.6-185.8,198.1-185.8,198.6L-185.8,198.6z"/>
<path class="st1" d="M-181.2,202.4c-0.8,0-1.5-0.7-1.5-1.5c0-0.8,0.7-1.5,1.5-1.5s1.5,0.7,1.5,1.5
	C-179.6,201.8-180.3,202.4-181.2,202.4z M-181.2,200.3c-0.3,0-0.6,0.3-0.6,0.6c0,0.3,0.3,0.6,0.6,0.6c0.3,0,0.6-0.3,0.6-0.6
	C-180.5,200.6-180.8,200.3-181.2,200.3z"/>
<path class="st0" d="M-185.4,198.6c0,0.3,0.3,0.6,0.6,0.6c0.3,0,0.6-0.3,0.6-0.6c0-0.3-0.3-0.6-0.6-0.6
	C-185.1,198-185.4,198.3-185.4,198.6C-185.4,198.6-185.4,198.6-185.4,198.6z"/>
</svg>
