<?xml version="1.0" encoding="utf-8"?>
<!-- Generator: Adobe Illustrator 19.0.0, SVG Export Plug-In . SVG Version: 6.00 Build 0)  -->
<svg version="1.1" id="图层_2" xmlns="http://www.w3.org/2000/svg" xmlns:xlink="http://www.w3.org/1999/xlink" x="0px" y="0px"
	 viewBox="-190 192.2 17.8 17.8" style="enable-background:new -190 192.2 17.8 17.8;" xml:space="preserve">
<style type="text/css">
	.st0{fill:#397CBF;}
	.st1{fill:#FFFFFF;}
</style>
<path class="st0" d="M-174.5,192.7h-11.1c-1,0-1.8,0.8-1.8,1.8v0.2h-0.2c-1,0-1.8,0.8-1.8,1.8v11.1c0,1,0.8,1.8,1.8,1.8h11.1
	c1,0,1.8-0.8,1.8-1.8v-0.2h0.2c1,0,1.8-0.8,1.8-1.8v-11.1C-172.7,193.5-173.5,192.7-174.5,192.7z"/>
<path class="st1" d="M-173.6,205.6c0,0.5-0.4,1-1,1h-0.2v-10.1c0-1-0.8-1.8-1.8-1.8h-10.1v-0.2c0-0.5,0.4-1,1-1h11.1
	c0.5,0,1,0.4,1,1"/>
<path class="st1" d="M-179.6,203.7c0.6-0.8,1-1.7,1-2.6c0-1.1-0.5-2-1.3-2.8c-0.8-0.7-1.7-1.1-2.7-1.1c-1.1,0-2.1,0.5-2.9,1.3
	c-0.8,0.8-1.1,1.7-1.1,2.8s0.5,2,1.3,2.8c0.8,0.7,1.7,1.1,2.7,1.1s1.8-0.4,2.5-1l2,2c0.1,0.1,0.2,0.1,0.3,0.1s0.2,0,0.3-0.1
	c0.2-0.2,0.2-0.4,0-0.6L-179.6,203.7z M-184.8,203.5c-0.6-0.6-1-1.4-1-2.2c0-0.9,0.3-1.7,0.9-2.3c0.6-0.7,1.5-1,2.3-1
	s1.7,0.3,2.2,0.9c0.6,0.6,1,1.4,1,2.2c0,0.9-0.3,1.7-0.9,2.3c-0.6,0.7-1.5,1-2.3,1C-183.5,204.4-184.3,204.1-184.8,203.5z"/>
</svg>
