<?xml version="1.0" encoding="UTF-8"?>
<svg width="20px" height="20px" viewBox="0 0 20 20" version="1.1" xmlns="http://www.w3.org/2000/svg" xmlns:xlink="http://www.w3.org/1999/xlink">
    <!-- Generator: Sketch 51.2 (57519) - http://www.bohemiancoding.com/sketch -->
    <title>基础设施@1x</title>
    <desc>Created with Sketch.</desc>
    <defs></defs>
    <g id="Page-1" stroke="none" stroke-width="1" fill="none" fill-rule="evenodd">
        <g id="Desktop-HD" transform="translate(-13.000000, -138.000000)" fill="#858789">
            <g id="左侧导航" transform="translate(0.000000, 56.000000)">
                <g id="基础设施" transform="translate(13.000000, 82.000000)">
                    <g id="Group-3" transform="translate(2.000000, 3.000000)">
                        <path d="M3.003248,13.2719602 C3.003248,12.9053352 3.304208,12.608392 3.673648,12.608392 L6.337168,12.608392 C6.705808,12.608392 7.004608,12.9054943 7.004608,13.2719602 C7.004608,13.6384261 6.705808,13.9355284 6.337168,13.9355284 L3.673968,13.9355284 C3.305408,13.937358 3.005088,13.641767 3.003248,13.2753011 C3.003248,13.2741875 3.003248,13.2730739 3.003248,13.2719602 Z M15.349968,4.31339205 C15.349968,4.67985795 15.051168,4.97696023 14.682608,4.97696023 C14.313968,4.97696023 14.015168,4.67985795 14.015168,4.31339205 L14.015168,1.65999432 C14.015168,1.47680114 13.866368,1.32717614 13.682448,1.32717614 L1.667488,1.32717614 C1.485968,1.32717614 1.334768,1.47648295 1.334768,1.65999432 L1.334768,9.62114205 C1.334768,9.80433523 1.483648,9.95396023 1.667488,9.95396023 L4.671728,9.95396023 C5.040288,9.95396023 5.339088,10.2510625 5.339088,10.6175284 C5.339088,10.9840739 5.040288,11.2811761 4.671728,11.2811761 L0.669408,11.2811761 C0.300768,11.2822898 0.001088,10.9860625 -3.2e-05,10.619517 C-3.2e-05,10.6188807 -3.2e-05,10.6182443 -3.2e-05,10.617608 L-3.2e-05,0.663607955 C-3.2e-05,0.296982955 0.299648,3.97727273e-05 0.669408,3.97727273e-05 L14.680608,3.97727273e-05 C15.049168,-0.00107386364 15.348848,0.295153409 15.349968,0.661619318 C15.349968,0.662255682 15.349968,0.662971591 15.349968,0.663607955 L15.349968,4.31339205 Z M12.310688,13.9123011 C12.122128,13.911983 11.939248,13.8346648 11.821168,13.7052443 C11.659968,13.529767 11.150448,13.0731761 10.732608,13.0731761 C10.318208,13.0731761 9.800288,13.5327102 9.651488,13.6929943 C9.533648,13.8207443 9.352128,13.8967102 9.165568,13.8967102 C9.076848,13.8967102 8.993088,13.8798466 8.916688,13.8462784 L8.903328,13.8406307 L7.634608,13.1352216 L7.621888,13.1259943 C7.389488,12.9602216 7.304528,12.6558807 7.417728,12.3946534 C7.418368,12.3926648 7.534528,12.1265852 7.534528,11.883017 C7.533568,11.1449148 6.932048,10.5468125 6.189728,10.5459375 L6.136288,10.5459375 C5.924128,10.5459375 5.750928,10.3581307 5.695808,10.068108 C5.691168,10.0448807 5.587408,9.49410795 5.587408,9.06042614 C5.587408,8.62610795 5.690848,8.07565341 5.695488,8.05178977 C5.751888,7.75810795 5.928048,7.56934659 6.144688,7.57427841 L6.189408,7.57427841 C6.932048,7.57340341 7.533808,6.97490341 7.534528,6.23648295 C7.534528,5.99363068 7.418368,5.72755114 7.417328,5.72452841 C7.304448,5.46322159 7.390368,5.15896023 7.623568,4.99422159 L7.636608,4.9853125 L8.975728,4.25365341 L8.989728,4.24800568 C9.064848,4.21586932 9.147248,4.19988068 9.234688,4.19988068 C9.420848,4.19988068 9.602768,4.2739375 9.721888,4.39898295 C9.880368,4.56388068 10.381248,4.99294886 10.786368,4.99294886 C11.188128,4.99294886 11.686368,4.57223295 11.844208,4.41027841 C11.962608,4.28785795 12.143168,4.21515341 12.327328,4.21515341 C12.416448,4.21515341 12.500528,4.23177841 12.577648,4.26494886 L12.591008,4.27059659 L13.884048,4.9853125 L13.897088,4.99422159 C14.128288,5.1541875 14.216368,5.46902841 14.101648,5.7255625 C14.100928,5.72755114 13.984848,5.99363068 13.984848,6.23648295 C13.985728,6.97466477 14.587248,7.57284659 15.329648,7.57396023 L15.374688,7.57396023 C15.590528,7.56934659 15.767728,7.75778977 15.823808,8.05178977 C15.828128,8.07501705 15.931968,8.62610795 15.931968,9.05978977 C15.931968,9.49378977 15.828128,10.0451989 15.823168,10.0684261 C15.767728,10.3617102 15.590528,10.5505511 15.374688,10.5455398 L15.329648,10.5455398 C14.587248,10.5466534 13.985728,11.1449148 13.984848,11.883017 C13.984848,12.1259489 14.100928,12.3926648 14.101968,12.3950511 C14.214928,12.6564375 14.129328,12.9607784 13.896368,13.1259943 L13.883728,13.1352216 L12.567968,13.857892 L12.554608,13.8635398 C12.477408,13.896233 12.394288,13.912858 12.310368,13.9123011 L12.310688,13.9123011 Z M12.000368,12.4371307 C12.005008,12.4404716 12.018368,12.4450852 12.032048,12.4450852 L12.033728,12.4450852 L13.012128,11.9075966 C12.988768,11.8528693 12.880608,11.5880625 12.880608,11.312358 C12.881168,10.4893807 13.528768,9.81038068 14.355248,9.76615341 C14.366928,9.70180114 14.431328,9.33716477 14.431328,9.06344886 C14.431328,8.78965341 14.366928,8.42541477 14.355248,8.36066477 C13.529008,8.3164375 12.881568,7.63791477 12.880608,6.81517614 C12.880608,6.53811932 12.989088,6.2733125 13.012128,6.21890341 L12.049728,5.68738068 L12.045728,5.6870625 C12.032688,5.68698295 12.019888,5.69048295 12.008688,5.69700568 C11.898848,5.80598295 11.779728,5.90533523 11.652608,5.99394886 C11.355648,6.20132386 11.075648,6.30648295 10.818368,6.30648295 C10.559408,6.30648295 10.276448,6.19933523 9.978128,5.98798295 C9.850048,5.89761932 9.730208,5.79611932 9.620128,5.68475568 C9.608608,5.67847159 9.595808,5.67521023 9.582688,5.67513068 L9.579408,5.67513068 L8.582608,6.2199375 C8.605968,6.27498295 8.713808,6.53947159 8.713808,6.81517614 C8.712848,7.63799432 8.065168,8.31659659 7.238848,8.36066477 C7.227168,8.42501705 7.163408,8.78965341 7.163408,9.06344886 C7.163408,9.33716477 7.227168,9.70180114 7.239168,9.76647159 C8.065648,9.81053977 8.713328,10.4893807 8.714128,11.312358 C8.714128,11.5890966 8.605008,11.854858 8.581648,11.908233 L9.525648,12.4328352 L9.527648,12.4328352 C9.541648,12.4328352 9.554368,12.4279034 9.559328,12.4248807 C9.670448,12.3094602 9.791488,12.203983 9.921088,12.109642 C10.223408,11.8893807 10.510688,11.7772216 10.775328,11.7772216 C11.042928,11.7772216 11.332608,11.8913693 11.636928,12.1163239 C11.841168,12.2669034 11.982688,12.4181989 12.000368,12.4371307 Z M10.776048,11.0475511 C9.659728,11.0462784 8.755088,10.146858 8.753808,9.03688068 C8.753808,7.92833523 9.661168,7.02621023 10.776048,7.02621023 C11.890528,7.02621023 12.798208,7.92833523 12.798208,9.03688068 C12.798208,10.1457443 11.890528,11.0475511 10.776048,11.0475511 Z M10.776048,8.01496023 C10.208688,8.01567614 9.748928,8.47274432 9.748208,9.03688068 C9.748928,9.60101705 10.208688,10.0580852 10.776048,10.0588011 C11.343248,10.0580852 11.802928,9.6009375 11.803488,9.03688068 C11.802928,8.47282386 11.343248,8.01567614 10.776048,8.01496023 Z" id="Fill-1"></path>
                    </g>
                </g>
            </g>
        </g>
    </g>
</svg>