<?xml version="1.0" encoding="utf-8"?>
<!-- Generator: Adobe Illustrator 19.0.0, SVG Export Plug-In . SVG Version: 6.00 Build 0)  -->
<svg version="1.1" id="图层_2" xmlns="http://www.w3.org/2000/svg" xmlns:xlink="http://www.w3.org/1999/xlink" x="0px" y="0px"
	 viewBox="-190 192.2 17.8 17.8" style="enable-background:new -190 192.2 17.8 17.8;" xml:space="preserve">
<style type="text/css">
	.st0{fill:#75787A;}
</style>
<path class="st0" d="M-177.4,208.7h-7.4c-0.2,0-0.4-0.2-0.4-0.4s0.2-0.4,0.4-0.4h7.4c0.2,0,0.4,0.2,0.4,0.4
	S-177.1,208.7-177.4,208.7z"/>
<path class="st0" d="M-181.1,208c-0.2,0-0.4-0.2-0.4-0.4v-2.2c0-0.2,0.2-0.4,0.4-0.4c0.2,0,0.4,0.2,0.4,0.4v2.2
	C-180.7,207.8-180.9,208-181.1,208z"/>
<path class="st0" d="M-173,205.8h-16.3c-0.2,0-0.4-0.2-0.4-0.4v-11.6c0-0.2,0.2-0.4,0.4-0.4h16.3c0.2,0,0.4,0.2,0.4,0.4v11.6
	C-172.5,205.6-172.7,205.8-173,205.8z M-188.8,204.9h15.4v-10.7h-15.4V204.9z"/>
<path class="st0" d="M-185.4,200.3h2.5c0.2,0,0.4,0.2,0.5,0.4c0,0.1,0,0.2-0.1,0.3c-0.1,0.1-0.2,0.1-0.3,0.1h-2.5
	c-0.2,0-0.4-0.2-0.5-0.4c0-0.1,0-0.3,0.1-0.3C-185.7,200.3-185.5,200.3-185.4,200.3z M-178.7,202.9c0,0.2-0.2,0.4-0.5,0.4h-6.2
	c-0.2,0-0.4-0.2-0.5-0.4c0-0.1,0-0.3,0.1-0.3s0.2-0.1,0.3-0.1h6.3c0.1,0,0.2,0.1,0.3,0.1C-178.7,202.6-178.7,202.8-178.7,202.9z"/>
<path class="st0" d="M-175.5,196.6l-0.9-1c-0.1-0.1-0.2-0.1-0.4,0l-3.8,3.3c0,0-0.1,0.1-0.1,0.1l-0.4,1.2c0,0.1,0,0.2,0.1,0.2
	c0.1,0.1,0.1,0.1,0.2,0.1l1.3-0.2c0,0,0.1,0,0.1,0c0,0,0,0,0,0l3.8-3.3C-175.4,196.9-175.4,196.7-175.5,196.6L-175.5,196.6z
	 M-179.5,200.1c0,0.1-0.1,0.1-0.1,0.1l-1,0.1c0,0-0.1,0-0.1,0c0,0,0-0.1,0-0.1l0.2-1c0-0.1,0.1-0.1,0.1-0.1c0,0,0,0,0,0h0
	c0,0,0,0,0,0c0,0,0,0,0,0l0.8,0.9C-179.5,200-179.5,200-179.5,200.1C-179.5,200-179.5,200.1-179.5,200.1L-179.5,200.1z
	 M-176.2,197.4c-0.1,0-0.1,0-0.2,0l-0.9-1c0,0,0-0.1,0-0.1c0,0,0-0.1,0.1-0.1c0,0,0.1,0,0.1,0l0.9,1
	C-176.2,197.3-176.2,197.3-176.2,197.4C-176.2,197.4-176.2,197.4-176.2,197.4z"/>
</svg>
