<?xml version="1.0" encoding="utf-8"?>
<!-- Generator: Adobe Illustrator 19.0.0, SVG Export Plug-In . SVG Version: 6.00 Build 0)  -->
<svg version="1.1" id="图层_2" xmlns="http://www.w3.org/2000/svg" xmlns:xlink="http://www.w3.org/1999/xlink" x="0px" y="0px"
	 viewBox="-190 192.2 17.8 17.8" style="enable-background:new -190 192.2 17.8 17.8;" xml:space="preserve">
<style type="text/css">
	.st0{fill:#75787A;}
</style>
<path class="st0" d="M-174.4,192.5h-11.4c-1,0-1.9,0.8-1.9,1.9v0.2h-0.2c-1,0-1.9,0.8-1.9,1.9v11.4c0,1,0.8,1.9,1.9,1.9h11.4
	c1,0,1.9-0.8,1.9-1.9v-0.2h0.2c1,0,1.9-0.8,1.9-1.9v-11.4C-172.5,193.3-173.3,192.5-174.4,192.5z M-175.4,207.8c0,0.6-0.4,1-1,1
	h-11.4c-0.6,0-1-0.4-1-1v-11.4c0-0.6,0.4-1,1-1h11.4c0.6,0,1,0.4,1,1V207.8L-175.4,207.8z M-173.4,205.8c0,0.6-0.4,1-1,1h-0.2v-10.4
	c0-1-0.8-1.9-1.9-1.9h-10.4v-0.2c0-0.6,0.4-1,1-1h11.4c0.6,0,1,0.4,1,1V205.8L-173.4,205.8z"/>
<path class="st0" d="M-186.7,202.9h2.3c0.2,0,0.4,0.2,0.4,0.4c0,0.1,0,0.2-0.1,0.3s-0.2,0.1-0.3,0.1h-2.3c-0.2,0-0.4-0.2-0.4-0.4
	c0-0.1,0-0.2,0.1-0.3C-186.9,203-186.8,202.9-186.7,202.9z"/>
<path class="st0" d="M-180.5,205.4c0,0.2-0.2,0.4-0.4,0.4h-5.8c-0.2,0-0.4-0.2-0.4-0.4c0-0.1,0-0.2,0.1-0.3c0.1-0.1,0.2-0.1,0.3-0.1
	h5.8c0.1,0,0.2,0.1,0.3,0.1C-180.5,205.1-180.5,205.2-180.5,205.4z"/>
<path class="st0" d="M-177.5,199.6l-0.8-0.9c-0.1-0.1-0.2-0.1-0.3,0l-3.5,3.1c0,0-0.1,0.1-0.1,0.1l-0.3,1.1c0,0.1,0,0.2,0,0.2
	c0.1,0.1,0.1,0.1,0.2,0.1l1.2-0.2c0,0,0.1,0,0.1,0c0,0,0,0,0,0l3.5-3.1C-177.5,199.8-177.5,199.7-177.5,199.6L-177.5,199.6z
	 M-181.2,202.8c0,0-0.1,0.1-0.1,0.1l-0.9,0.1c0,0-0.1,0-0.1,0c0,0,0-0.1,0-0.1l0.2-0.9c0-0.1,0.1-0.1,0.1-0.1c0,0,0,0,0,0h0
	c0,0,0,0,0,0c0,0,0,0,0,0l0.7,0.8C-181.2,202.7-181.2,202.7-181.2,202.8C-181.2,202.7-181.2,202.7-181.2,202.8L-181.2,202.8z
	 M-178.2,200.3c0,0-0.1,0-0.2,0l-0.8-0.9c0,0,0-0.1,0-0.1c0,0,0-0.1,0.1-0.1s0.1,0,0.1,0l0.8,0.9
	C-178.2,200.1-178.2,200.2-178.2,200.3C-178.2,200.2-178.2,200.3-178.2,200.3z"/>
</svg>
