<?xml version="1.0" encoding="utf-8"?>
<!-- Generator: Adobe Illustrator 19.0.0, SVG Export Plug-In . SVG Version: 6.00 Build 0)  -->
<svg version="1.1" id="图层_2" xmlns="http://www.w3.org/2000/svg" xmlns:xlink="http://www.w3.org/1999/xlink" x="0px" y="0px"
	 viewBox="-190 192.2 17.8 17.8" style="enable-background:new -190 192.2 17.8 17.8;" xml:space="preserve">
<style type="text/css">
	.st0{fill:#75787A;}
</style>
<path class="st0" d="M-173.7,196.5l-4.2-4.2c-0.1-0.1-0.2-0.1-0.3-0.1h-8.9c-0.8,0-1.4,0.6-1.4,1.4v15c0,0.8,0.6,1.4,1.4,1.4h12.2
	c0.8,0,1.4-0.6,1.4-1.4v-11.7C-173.6,196.7-173.6,196.6-173.7,196.5z M-174.7,196.8h-3.1c-0.3,0-0.5-0.2-0.5-0.5v-3.1L-174.7,196.8z
	 M-174.5,208.6c0,0.3-0.2,0.5-0.5,0.5h-12.2c-0.3,0-0.5-0.2-0.5-0.5v-15c0-0.3,0.2-0.5,0.5-0.5h8v3.3c0,0.8,0.6,1.4,1.4,1.4h3.3
	L-174.5,208.6L-174.5,208.6z"/>
<path class="st0" d="M-177.3,205.1l-1.6-1.6c0.4-0.6,0.7-1.3,0.7-2c0-1.9-1.5-3.4-3.4-3.4s-3.4,1.5-3.4,3.4s1.5,3.4,3.4,3.4
	c0.8,0,1.5-0.3,2-0.7l1.6,1.6c0.1,0.1,0.2,0.2,0.4,0.2c0.1,0,0.3-0.1,0.4-0.2C-177.1,205.6-177.1,205.3-177.3,205.1z M-184.2,201.4
	c0-1.4,1.2-2.6,2.6-2.6c1.4,0,2.6,1.2,2.6,2.6c0,1.4-1.2,2.6-2.6,2.6C-183.1,204-184.2,202.9-184.2,201.4z"/>
</svg>
